# xmcd
#
# Track frame offsets:
#	182
#	13982
#	26852
#	40085
#	55705
#	66837
#	80635
#	95165
#	107817
#	119252
#	131985
#	144917
#	157662
#	170745
#	185027
#	196115
#
# Disc length: 2803 seconds
#
# Revision: 0
# Processed by: cddbd v1.5.1PL0 Copyright (c) Steve Scherf et al.
# Submitted via: dBpowerAMP V4.0
#
DISCID=e30af110
DTITLE=Various Artist - Musique De Danse - Le Paso Doble
DYEAR=1999
DGENRE=Paso Doble
TTITLE0=Bucaro (Paso Doble) - Emile Noblot
TTITLE1=Le Matador (Paso Doble) - Marceau
TTITLE2=Sambreros Et Mantilles (Paso Doble) - Jean Vaissade Et Roger
TTITLE3=Macario (Paso Doble) - Emile Prud'homme
TTITLE4=Rosas (Paso Doble) - Tony Murena
TTITLE5=Tonico (Paso Doble) - Primo Corchia
TTITLE6=Gaillardo (Paso Doble) - Emile Noblot
TTITLE7=Pepito (Paso Doble) - Emile Prud'homme
TTITLE8=Lolita Gitana (Paso Doble) - Emile Noblot
TTITLE9=Querida (Paso Doble) - Emile Prud'homme
TTITLE10=Manuelita (Paso Doble) - Louis péguri
TTITLE11=Espana Cani (Paso Doble) - Maurice Alexander
TTITLE12=Mandarines (Paso Doble) - Emile Prud'homme
TTITLE13=El Ferrero (Paso Doble) - Médart Ferrero
TTITLE14=Bogota (Paso Doble) - Jo Privat
TTITLE15=Granada (Paso Doble) - Adolphe Deprince
EXTD=
EXTT0=
EXTT1=
EXTT2=
EXTT3=
EXTT4=
EXTT5=
EXTT6=
EXTT7=
EXTT8=
EXTT9=
EXTT10=
EXTT11=
EXTT12=
EXTT13=
EXTT14=
EXTT15=
PLAYORDER=
